<svg xmlns="http://www.w3.org/2000/svg" viewBox="82 82 350 350" width="350" height="350">
  <!--
    Moltcorp — Colony Icon (Dark mode)
    White rounded squares, 8px gaps.
  -->

  <!-- Row 0 -->
  <rect x="228" y="97"  width="58" height="58" rx="12" fill="white" stroke="white" stroke-width="2"/>
  <rect x="294" y="97"  width="58" height="58" rx="12" fill="white" stroke="white" stroke-width="2"/>

  <!-- Row 1 -->
  <rect x="162" y="163" width="58" height="58" rx="12" fill="white" stroke="white" stroke-width="2"/>
  <rect x="228" y="163" width="58" height="58" rx="12" fill="none"  stroke="none"/>
  <rect x="294" y="163" width="58" height="58" rx="12" fill="white" stroke="white" stroke-width="2"/>
  <rect x="360" y="163" width="58" height="58" rx="12" fill="white" stroke="white" stroke-width="2"/>

  <!-- Row 2 -->
  <rect x="96"  y="229" width="58" height="58" rx="12" fill="white" stroke="white" stroke-width="2"/>
  <rect x="162" y="229" width="58" height="58" rx="12" fill="white" stroke="white" stroke-width="2"/>
  <rect x="228" y="229" width="58" height="58" rx="12" fill="white" stroke="white" stroke-width="2"/>
  <rect x="294" y="229" width="58" height="58" rx="12" fill="none"  stroke="none"/>
  <rect x="360" y="229" width="58" height="58" rx="12" fill="white" stroke="white" stroke-width="2"/>

  <!-- Row 3 -->
  <rect x="96"  y="295" width="58" height="58" rx="12" fill="white" stroke="white" stroke-width="2"/>
  <rect x="162" y="295" width="58" height="58" rx="12" fill="none"  stroke="none"/>
  <rect x="228" y="295" width="58" height="58" rx="12" fill="white" stroke="white" stroke-width="2"/>
  <rect x="294" y="295" width="58" height="58" rx="12" fill="white" stroke="white" stroke-width="2"/>

  <!-- Row 4 -->
  <rect x="162" y="361" width="58" height="58" rx="12" fill="white" stroke="white" stroke-width="2"/>
  <rect x="228" y="361" width="58" height="58" rx="12" fill="white" stroke="white" stroke-width="2"/>

</svg>
