<svg xmlns="http://www.w3.org/2000/svg" viewBox="56 57 1920 442" fill="#fafafa">
  <rect x="228" y="97" width="58" height="58" rx="12" />
  <rect x="294" y="97" width="58" height="58" rx="12" />
  <rect x="162" y="163" width="58" height="58" rx="12" />
  <rect x="294" y="163" width="58" height="58" rx="12" />
  <rect x="360" y="163" width="58" height="58" rx="12" />
  <rect x="96" y="229" width="58" height="58" rx="12" />
  <rect x="162" y="229" width="58" height="58" rx="12" />
  <rect x="228" y="229" width="58" height="58" rx="12" />
  <rect x="360" y="229" width="58" height="58" rx="12" />
  <rect x="96" y="295" width="58" height="58" rx="12" />
  <rect x="228" y="295" width="58" height="58" rx="12" />
  <rect x="294" y="295" width="58" height="58" rx="12" />
  <rect x="162" y="361" width="58" height="58" rx="12" />
  <rect x="228" y="361" width="58" height="58" rx="12" />
  <path d="M530.79 365.1V201.7H561.09L562.62 239.03L558.94 238.11Q562.62 218.53 571.49 208.28Q580.36 198.02 593.83 198.02Q608.52 198.02 615.86 208.43Q623.2 218.83 625.35 239.64H621.37Q624.43 219.44 634.37 208.73Q644.32 198.02 659.01 198.02Q677.67 198.02 686.24 211.18Q694.81 224.34 694.81 253.1V365.1H660.23V260.14Q660.23 242.09 656.86 235.51Q653.5 228.93 646.15 228.93Q641.26 228.93 637.43 232.14Q633.61 235.36 631.31 242.39Q629.02 249.43 629.02 260.45V365.1H596.58V260.14Q596.58 243.01 593.22 235.97Q589.85 228.93 582.2 228.93Q577.0 228.93 573.33 232.14Q569.65 235.36 567.51 242.39Q565.37 249.43 565.37 260.45V365.1Z" />
  <path d="M788.75 368.77Q765.8 368.77 748.51 358.37Q731.22 347.96 721.74 328.69Q712.25 309.41 712.25 283.4Q712.25 257.39 721.74 238.11Q731.22 218.83 748.51 208.43Q765.8 198.02 788.75 198.02Q811.7 198.02 828.99 208.43Q846.28 218.83 855.76 237.96Q865.25 257.08 865.25 283.4Q865.25 309.41 855.76 328.69Q846.28 347.96 828.99 358.37Q811.7 368.77 788.75 368.77ZM788.75 336.34Q807.42 336.34 817.51 322.41Q827.61 308.49 827.61 283.4Q827.61 258.31 817.51 244.38Q807.42 230.46 788.75 230.46Q770.08 230.46 759.99 244.38Q749.89 258.31 749.89 283.4Q749.89 308.49 759.99 322.41Q770.08 336.34 788.75 336.34Z" />
  <path d="M950.93 365.1V196.8Q950.93 187.62 945.88 182.42Q940.83 177.22 931.35 177.22H894.93V147.84H936.85Q961.64 147.84 974.34 160.54Q987.04 173.24 987.04 198.33V365.1ZM888.81 365.1V335.72H1040.59V365.1Z" />
  <path d="M1163.6 365.1Q1137.28 365.1 1124.74 353.01Q1112.19 340.93 1112.19 316.14V163.45H1148.3V313.39Q1148.3 324.71 1153.81 330.22Q1159.32 335.72 1170.03 335.72H1210.42V365.1ZM1062.93 231.07V201.7H1210.42V231.07Z" />
  <path d="M1319.97 368.77Q1296.71 368.77 1279.27 358.06Q1261.83 347.35 1252.03 328.23Q1242.24 309.1 1242.24 283.4Q1242.24 257.69 1252.03 238.57Q1261.83 219.44 1279.27 208.73Q1296.71 198.02 1319.97 198.02Q1338.94 198.02 1354.08 205.37Q1369.23 212.71 1379.18 226.33Q1389.12 239.95 1391.88 258.61L1355.46 260.75Q1352.1 246.07 1342.92 238.26Q1333.74 230.46 1320.27 230.46Q1301.3 230.46 1290.59 244.69Q1279.88 258.92 1279.88 283.4Q1279.88 307.88 1290.59 322.11Q1301.3 336.34 1320.27 336.34Q1333.74 336.34 1343.37 328.07Q1353.01 319.81 1356.38 303.9L1392.79 306.04Q1389.73 325.01 1379.79 339.09Q1369.84 353.17 1354.39 360.97Q1338.94 368.77 1319.97 368.77Z" />
  <path d="M1492.55 368.77Q1469.6 368.77 1452.31 358.37Q1435.02 347.96 1425.54 328.69Q1416.05 309.41 1416.05 283.4Q1416.05 257.39 1425.54 238.11Q1435.02 218.83 1452.31 208.43Q1469.6 198.02 1492.55 198.02Q1515.5 198.02 1532.79 208.43Q1550.08 218.83 1559.56 237.96Q1569.05 257.08 1569.05 283.4Q1569.05 309.41 1559.56 328.69Q1550.08 347.96 1532.79 358.37Q1515.5 368.77 1492.55 368.77ZM1492.55 336.34Q1511.22 336.34 1521.31 322.41Q1531.41 308.49 1531.41 283.4Q1531.41 258.31 1521.31 244.38Q1511.22 230.46 1492.55 230.46Q1473.88 230.46 1463.79 244.38Q1453.69 258.31 1453.69 283.4Q1453.69 308.49 1463.79 322.41Q1473.88 336.34 1492.55 336.34Z" />
  <path d="M1640.96 365.1V201.7H1668.5L1671.25 243.92H1668.5Q1671.56 222.5 1681.5 212.1Q1691.45 201.7 1709.81 201.7H1745.61V231.99H1711.95Q1700.32 231.99 1692.67 236.27Q1685.02 240.56 1681.05 248.82Q1677.07 257.08 1677.07 269.63V365.1ZM1600.57 365.1V335.72H1727.56V365.1ZM1600.57 231.07V201.7H1662.07V231.07Z" />
  <path d="M1772.23 411.0V201.7H1806.81L1807.73 239.03L1804.06 237.19Q1810.18 218.22 1823.79 208.12Q1837.41 198.02 1856.69 198.02Q1879.33 198.02 1894.17 209.65Q1909.02 221.28 1916.21 240.56Q1923.4 259.84 1923.4 283.4Q1923.4 306.96 1916.21 326.24Q1909.02 345.52 1894.17 357.14Q1879.33 368.77 1856.69 368.77Q1844.14 368.77 1833.59 364.64Q1823.03 360.51 1815.53 352.71Q1808.04 344.9 1804.36 333.28L1808.34 328.99V411.0ZM1847.51 336.34Q1865.56 336.34 1875.66 323.03Q1885.76 309.71 1885.76 283.4Q1885.76 257.08 1875.66 243.77Q1865.56 230.46 1847.51 230.46Q1835.88 230.46 1827.16 236.27Q1818.44 242.09 1813.39 253.87Q1808.34 265.65 1808.34 283.4Q1808.34 301.15 1813.24 312.93Q1818.13 324.71 1827.01 330.52Q1835.88 336.34 1847.51 336.34Z" />
</svg>